<svg width="14" height="14" viewBox="0 0 14 14" fill="none" xmlns="http://www.w3.org/2000/svg">
<path d="M12.1567 2.68917C11.8588 2.39109 11.505 2.15463 11.1157 1.9933C10.7263 1.83197 10.309 1.74893 9.88753 1.74893C9.46608 1.74893 9.04876 1.83197 8.6594 1.9933C8.27005 2.15463 7.9163 2.39109 7.61836 2.68917L7.00003 3.3075L6.3817 2.68917C5.77987 2.08735 4.96363 1.74925 4.11253 1.74925C3.26143 1.74925 2.44518 2.08735 1.84336 2.68917C1.24154 3.29099 0.903442 4.10723 0.903442 4.95833C0.903442 5.80944 1.24154 6.62568 1.84336 7.2275L2.4617 7.84583L7.00003 12.3842L11.5384 7.84583L12.1567 7.2275C12.4548 6.92956 12.6912 6.57581 12.8526 6.18646C13.0139 5.79711 13.0969 5.37978 13.0969 4.95833C13.0969 4.53688 13.0139 4.11956 12.8526 3.73021C12.6912 3.34086 12.4548 2.98711 12.1567 2.68917V2.68917Z" stroke="#65696B" stroke-linecap="round" stroke-linejoin="round"/>
</svg>
